<svg width="157" height="136" viewBox="0 0 157 136" fill="none" xmlns="http://www.w3.org/2000/svg">
<path d="M138.772 125.227C142.256 120.424 144.785 114.811 146.024 108.612C150.62 85.5985 135.689 63.2163 112.677 58.6204C89.6638 54.0246 67.2816 68.9554 62.6856 91.9678C61.448 98.168 61.627 104.321 62.9993 110.093L138.772 125.227Z" fill="#D1DEF0"/>
<path d="M143.797 84.4724C140.004 84.7541 134.631 84.4296 127.39 82.4654C113.181 78.611 97.5762 66.8846 84.28 62.8367C74.4733 68.0987 66.7929 77.1598 63.5321 88.4873C68.3031 85.8943 75.0317 83.4087 83.7417 82.927C103.152 81.8524 122.646 91.4042 133.672 92.8983C138.366 93.5349 142.671 92.9858 146.069 92.1467C145.553 89.5073 144.789 86.9386 143.797 84.4724Z" fill="#BFCBDC"/>
<path d="M134.721 110.397C127.955 108.731 106.382 91.6255 85.8916 92.5067C74.4388 92.9986 66.639 95.173 61.9868 96.9951C61.6328 101.477 61.9993 105.887 62.9991 110.093L138.771 125.227C142.16 120.556 144.645 115.12 145.918 109.123C142.341 110.284 138.012 111.208 134.721 110.397Z" fill="#BFCBDC"/>
<path d="M53.1428 24.4736V24.4528C53.142 24.4559 53.1403 24.459 53.1395 24.4632C53.1386 24.459 53.1378 24.4559 53.137 24.4528V24.4736C52.8729 25.4311 52.2624 26.1163 51.3056 26.5283C52.2624 26.9402 52.8729 27.6255 53.137 28.5829V28.6038C53.1378 28.5996 53.1386 28.5965 53.1395 28.5933C53.1403 28.5965 53.142 28.5996 53.1428 28.6038V28.5829C53.4069 27.6255 54.0173 26.9402 54.9741 26.5283C54.0173 26.1163 53.4069 25.4311 53.1428 24.4736Z" fill="#9CA9BA"/>
<path d="M127.667 8.29514V8.27458C127.666 8.27801 127.664 8.28144 127.664 8.28487C127.663 8.28144 127.661 8.27801 127.661 8.27458V8.29514C127.396 9.25229 126.786 9.93761 125.829 10.3499C126.786 10.7623 127.396 11.4476 127.661 12.4047V12.4253C127.661 12.4219 127.663 12.4184 127.664 12.415C127.664 12.4184 127.666 12.4219 127.667 12.4253V12.4047C127.931 11.4476 128.54 10.7623 129.498 10.3499C128.54 9.93761 127.931 9.25229 127.667 8.29514Z" fill="#9CA9BA"/>
<path d="M132.286 41.7231V41.6794C132.284 41.6867 132.282 41.694 132.279 41.7013C132.277 41.694 132.274 41.6867 132.274 41.6794V41.7231C131.717 43.7457 130.426 45.1959 128.404 46.0665C130.426 46.9372 131.717 48.385 132.274 50.41V50.4536C132.274 50.4439 132.277 50.4391 132.279 50.4294C132.282 50.4391 132.284 50.4439 132.286 50.4536V50.41C132.844 48.385 134.134 46.9372 136.157 46.0665C134.134 45.1959 132.844 43.7457 132.286 41.7231Z" fill="#9CA9BA"/>
<path d="M10.5177 82.9392V82.919C10.5168 82.9224 10.5158 82.9257 10.5148 82.9291C10.5139 82.9257 10.5128 82.9224 10.5119 82.919V82.9392C10.2477 83.8969 9.63735 84.5822 8.68057 84.9942C9.63735 85.4062 10.2477 86.0915 10.5119 87.0492V87.0693C10.5128 87.066 10.5139 87.0626 10.5148 87.0593C10.5158 87.0626 10.5168 87.066 10.5177 87.0693V87.0492C10.7819 86.0915 11.3922 85.4062 12.349 84.9942C11.3922 84.5822 10.7819 83.8969 10.5177 82.9392Z" fill="#9CA9BA"/>
<path d="M145.195 17.6111V17.547C145.191 17.5564 145.19 17.5677 145.186 17.579C145.182 17.5677 145.18 17.5564 145.176 17.547V17.6111C144.339 20.6479 142.403 22.8194 139.37 24.1276C142.403 25.4339 144.339 27.6055 145.176 30.6423V30.7083C145.18 30.6969 145.182 30.6856 145.186 30.6743C145.19 30.6856 145.191 30.6969 145.195 30.7083V30.6423C146.032 27.6055 147.968 25.4339 151.001 24.1276C147.968 22.8194 146.032 20.6479 145.195 17.6111Z" fill="#9CA9BA"/>
<path d="M49.5795 65.716V65.6626C49.5773 65.6715 49.5751 65.6804 49.5728 65.6893C49.5695 65.6804 49.5673 65.6715 49.5651 65.6626V65.716C48.8663 68.2477 47.2533 70.0573 44.7261 71.1471C47.2533 72.2357 48.8663 74.0454 49.5651 76.5771V76.6304C49.5673 76.6215 49.5695 76.6126 49.5728 76.6037C49.5751 76.6126 49.5773 76.6215 49.5795 76.6304V76.5771C50.2782 74.0454 51.8913 72.2357 54.4185 71.1471C51.8913 70.0573 50.2782 68.2477 49.5795 65.716Z" fill="#9CA9BA"/>
<path d="M40.766 1.39769V1.3336C40.7635 1.34459 40.7607 1.35557 40.7582 1.36656C40.7541 1.35557 40.7514 1.34459 40.7488 1.3336V1.39769C39.9102 4.43533 37.9754 6.60691 34.9416 7.91425C37.9754 9.22158 39.9102 11.3931 40.7488 14.4308V14.4949C40.7514 14.4839 40.7541 14.4729 40.7582 14.4619C40.7607 14.4729 40.7635 14.4839 40.766 14.4949V14.4308C41.6046 11.3931 43.5402 9.22158 46.5729 7.91425C43.5402 6.60691 41.6046 4.43533 40.766 1.39769Z" fill="#9CA9BA"/>
<path d="M114.66 15.6109C114.66 24.2322 107.672 31.2217 99.0507 31.2217C90.4294 31.2217 83.4399 24.2322 83.4399 15.6109C83.4399 6.9895 90.4294 7.62939e-05 99.0507 7.62939e-05C107.672 7.62939e-05 114.66 6.9895 114.66 15.6109Z" fill="#D1DEF0"/>
<path d="M102.129 0.30415C102.222 2.64937 102.063 5.09464 101.282 6.74428C99.324 10.8785 96.2785 12.1839 89.3154 15.6106C86.464 17.0137 85.2968 19.6305 84.912 22.2318C86.0209 24.5961 87.7051 26.6364 89.7847 28.1729C90.2552 26.2076 91.1414 24.0208 92.7969 22.1925C96.9312 17.6235 103.24 21.9745 110.539 18.2762C112.473 17.2948 113.741 15.6725 114.559 13.818C113.787 7.06348 108.704 1.6179 102.129 0.30415Z" fill="#ADB9C8"/>
<path d="M37.6525 49.0582C40.5289 55.5993 37.5583 63.2343 31.0174 66.111C24.4763 68.9877 16.8415 66.0169 13.9646 59.4767C11.0879 52.9346 14.0584 45.2996 20.5997 42.4239C27.1409 39.5463 34.7756 42.517 37.6525 49.0582Z" fill="#E9F3FF"/>
<path d="M6.22197 65.7559C5.07374 65.7559 4.40238 65.5022 4.17506 64.9856C3.85041 64.2475 4.54365 63.1877 6.2944 61.7473C7.85286 60.4651 10.2218 58.9144 13.1451 57.2627C13.2798 57.1864 13.4508 57.2342 13.527 57.3684C13.6031 57.5026 13.5556 57.6745 13.4209 57.7499C10.5255 59.3869 8.18432 60.9182 6.65058 62.1803C4.54071 63.9157 4.61516 64.594 4.68824 64.7595C4.77694 64.9608 5.53801 65.8836 11.8239 64.2273C16.2183 63.0682 21.8415 61.0221 27.6577 58.4641C33.474 55.906 38.7825 53.1448 42.6066 50.6888C48.0762 47.1757 47.9107 45.9909 47.8216 45.7896C47.749 45.625 47.3059 45.1167 44.6431 45.4862C42.7066 45.7537 40.0329 46.4293 36.9117 47.4376C36.7645 47.4854 36.6065 47.4036 36.559 47.2566C36.5114 47.1095 36.5922 46.9514 36.7395 46.9045C39.8916 45.8861 42.5982 45.2031 44.5666 44.9311C46.7792 44.624 48.0118 44.8318 48.3345 45.5644C48.5946 46.1563 48.2067 46.944 47.1487 47.9735C46.2167 48.8807 44.7901 49.9525 42.9093 51.1603C39.0617 53.6319 33.7256 56.4079 27.8834 58.9779C22.0411 61.547 16.3885 63.6041 11.9667 64.7696C9.80518 65.3386 8.05094 65.6649 6.75261 65.7393C6.56574 65.7494 6.38871 65.7559 6.22197 65.7559Z" fill="#ADB9C8"/>
<path d="M156 136C155.933 136 155.866 135.976 155.813 135.928C150.69 131.311 145.126 127.131 139.276 123.505C133.363 119.84 127.089 116.698 120.628 114.166C107.212 108.909 93.0377 106.243 78.4996 106.243C63.9619 106.243 49.788 108.909 36.3716 114.166C29.9105 116.698 23.6364 119.84 17.7235 123.505C11.8732 127.131 6.30966 131.311 1.18701 135.928C1.07202 136.032 0.894854 136.022 0.7911 135.907C0.687596 135.792 0.696709 135.615 0.8117 135.511C5.95907 130.872 11.5495 126.672 17.4282 123.028C23.3699 119.345 29.6745 116.188 36.1671 113.644C49.6484 108.361 63.8912 105.683 78.4996 105.683C93.1088 105.683 107.351 108.361 120.833 113.644C127.325 116.188 133.629 119.345 139.572 123.028C145.45 126.672 151.04 130.872 156.188 135.511C156.304 135.615 156.313 135.792 156.208 135.907C156.153 135.969 156.077 136 156 136Z" fill="#9CA9BA"/>
<path d="M19.9935 129.713C19.8657 129.713 19.7502 129.625 19.7205 129.495C19.686 129.344 19.7804 129.194 19.9313 129.16C20.0069 129.142 27.5959 127.379 36.4384 122.907C42.759 119.711 47.397 115.881 50.1751 113.23C52.5521 110.963 54.0093 109.148 54.5255 108.475L45.6851 104.793C45.4337 104.768 43.7882 104.646 40.8293 105.272C35.458 106.409 29.968 109.094 26.3083 111.145C19.3282 115.058 13.3552 121.316 12.6284 122.091V126.704C12.6284 126.859 12.5029 126.985 12.3481 126.985C12.1933 126.985 12.0678 126.859 12.0678 126.704V121.981C12.0678 121.91 12.0941 121.843 12.1415 121.792C12.2047 121.723 18.5432 114.856 26.0341 110.656C29.7416 108.577 35.3059 105.86 40.7595 104.715C44.0472 104.023 45.7229 104.231 45.7919 104.24C45.8171 104.244 45.8407 104.25 45.8634 104.26L55.0729 108.095C55.1511 108.128 55.2108 108.195 55.2344 108.277C55.2579 108.359 55.2428 108.447 55.1932 108.517C55.178 108.538 53.62 110.716 50.5745 113.624C47.767 116.304 43.0802 120.176 36.6914 123.408C27.7842 127.912 20.1324 129.689 20.0561 129.706C20.0352 129.711 20.0142 129.713 19.9935 129.713Z" fill="#9CA9BA"/>
<path d="M16.1624 122.366C16.0504 122.366 15.9446 122.298 15.9013 122.188C15.845 122.043 15.9161 121.881 16.0602 121.824C16.079 121.817 18.0411 121.042 27.4191 116.711C36.7538 112.401 40.3344 108.503 40.3697 108.465C40.4731 108.349 40.6505 108.34 40.7657 108.444C40.8801 108.548 40.8893 108.724 40.7859 108.84C40.7498 108.881 39.861 109.859 37.7909 111.387C35.89 112.791 32.5889 114.941 27.6541 117.22C18.2434 121.566 16.3407 122.316 16.2644 122.347C16.2308 122.359 16.1964 122.366 16.1624 122.366Z" fill="#9CA9BA"/>
<path d="M143.025 128.079C141.992 128.079 140.715 128.04 139.219 127.918C135.333 127.602 129.199 126.642 122.044 123.871C118.101 122.343 112.204 119.785 106.498 116.274C103.079 114.169 101.324 112.696 101.307 112.682C101.188 112.582 101.173 112.405 101.273 112.287C101.373 112.168 101.549 112.154 101.668 112.253C101.684 112.268 103.418 113.721 106.807 115.806C109.933 117.73 115.15 120.599 122.247 123.348C129.339 126.096 135.416 127.046 139.264 127.36C142.421 127.616 144.626 127.499 145.518 127.426L142.024 121.811C141.522 121.391 135.296 116.267 125.308 111.635C120.575 109.44 116.704 107.961 113.473 107.113C110.547 106.346 108.679 106.247 107.378 106.247C106.599 106.247 101.473 107.613 99.5632 108.139C99.4149 108.18 99.2605 108.093 99.219 107.944C99.1774 107.794 99.2665 107.64 99.4149 107.599C100.125 107.403 106.382 105.686 107.378 105.686C110.561 105.686 115.209 106.333 125.543 111.127C131 113.657 135.296 116.317 137.939 118.102C140.805 120.039 142.405 121.399 142.421 121.412C142.443 121.431 142.462 121.453 142.476 121.477L146.233 127.513C146.283 127.594 146.289 127.695 146.248 127.782C146.207 127.867 146.125 127.927 146.03 127.939C145.964 127.947 144.903 128.079 143.025 128.079Z" fill="#9CA9BA"/>
<path d="M137.986 121.859C137.975 121.859 137.964 121.858 137.954 121.857C137.877 121.849 130.057 120.965 121.436 117.138C118.95 116.034 115.32 114.26 112.149 112.073C110.242 110.758 109.415 109.926 109.381 109.891C109.272 109.78 109.273 109.603 109.383 109.495C109.493 109.386 109.671 109.387 109.779 109.497C109.812 109.53 113.144 112.844 121.662 116.626C130.2 120.416 137.938 121.291 138.014 121.3C138.169 121.317 138.28 121.455 138.263 121.609C138.247 121.753 138.127 121.859 137.986 121.859Z" fill="#ADB9C8"/>
</svg>
